<?xml version="1.0" encoding="UTF-8"?>
<!-- Generator: Adobe Illustrator 24.2.0, SVG Export Plug-In . SVG Version: 6.00 Build 0)  -->
<svg enable-background="new 0 0 215 43" version="1.1" viewBox="0 0 215 43" xml:space="preserve" xmlns="http://www.w3.org/2000/svg" xmlns:cc="http://creativecommons.org/ns#" xmlns:dc="http://purl.org/dc/elements/1.1/" xmlns:rdf="http://www.w3.org/1999/02/22-rdf-syntax-ns#"><metadata><rdf:RDF><cc:Work rdf:about=""><dc:format>image/svg+xml</dc:format><dc:type rdf:resource="http://purl.org/dc/dcmitype/StillImage"/><dc:title/></cc:Work></rdf:RDF></metadata>
<style type="text/css">
	.st0{fill:#FFFFFF;}
</style><g fill="none" stroke="#000" stroke-width=".5">
<g style="paint-order:stroke fill markers">
	<path class="st0" d="m53.46 32.13h4.07c0.18 1.68 0.89 3.07 3.68 3.07 1.86 0 3.1-1.02 3.1-2.5 0-1.5-0.79-2.02-3.55-2.44-4.81-0.63-6.78-2.08-6.78-5.7 0-3.2 2.68-5.6 6.83-5.6 4.23 0 6.7 1.89 7.04 5.62h-3.91c-0.26-1.71-1.26-2.5-3.13-2.5-1.86 0-2.81 0.87-2.81 2.13 0 1.34 0.6 1.97 3.49 2.39 4.54 0.58 6.88 1.81 6.88 5.7 0 3.34-2.73 5.99-7.17 5.99-5.14 0.01-7.51-2.41-7.74-6.16z" style="paint-order:stroke fill markers"/>
	<path class="st0" d="m70.48 24.27h3.81v2.15c0.76-1.31 2.36-2.47 4.39-2.47 3.36 0 5.99 2.5 5.99 7.04v0.21c0 4.54-2.57 7.09-5.99 7.09-2.13 0-3.68-1.05-4.39-2.39v6.78h-3.81v-18.41zm10.32 6.96v-0.21c0-2.78-1.37-4.15-3.28-4.15-2 0-3.36 1.39-3.36 4.15v0.21c0 2.76 1.31 4.1 3.39 4.1 2.1 0 3.25-1.42 3.25-4.1z" style="paint-order:stroke fill markers"/>
	<path class="st0" d="m85.69 34.2c0-3.2 2.94-4.41 7.14-4.41h1.55v-0.55c0-1.63-0.5-2.52-2.23-2.52-1.5 0-2.18 0.76-2.34 1.94h-3.6c0.24-3.26 2.81-4.7 6.17-4.7s5.75 1.37 5.75 5.1v8.96h-3.7v-1.65c-0.79 1.1-2 1.94-4.15 1.94-2.49-0.01-4.59-1.22-4.59-4.11zm8.69-1v-1.16h-1.47c-2.21 0-3.49 0.47-3.49 1.94 0 1 0.6 1.65 2 1.65 1.68 0.02 2.96-0.9 2.96-2.43z" style="paint-order:stroke fill markers"/>
	<path class="st0" d="m101.34 33.94v-6.96h-1.76v-2.71h1.76v-2.97h3.78v2.97h2.89v2.71h-2.89v6.62c0 1.1 0.55 1.63 1.52 1.63 0.58 0 1-0.08 1.44-0.26v2.94c-0.53 0.18-1.29 0.37-2.31 0.37-2.88-0.01-4.43-1.48-4.43-4.34z" style="paint-order:stroke fill markers"/>
	<path class="st0" d="m109.85 20.33c0-1.18 0.95-2.08 2.15-2.08 1.23 0 2.18 0.89 2.18 2.08 0 1.18-0.95 2.08-2.18 2.08-1.2 0-2.15-0.9-2.15-2.08zm0.29 3.94h3.78v13.74h-3.78v-13.74z" style="paint-order:stroke fill markers"/>
	<path class="st0" d="m115.89 34.2c0-3.2 2.94-4.41 7.14-4.41h1.55v-0.55c0-1.63-0.5-2.52-2.23-2.52-1.5 0-2.18 0.76-2.34 1.94h-3.6c0.24-3.26 2.81-4.7 6.17-4.7s5.75 1.37 5.75 5.1v8.96h-3.7v-1.65c-0.79 1.1-2 1.94-4.15 1.94-2.48-0.01-4.59-1.22-4.59-4.11zm8.7-1v-1.16h-1.47c-2.21 0-3.49 0.47-3.49 1.94 0 1 0.6 1.65 2 1.65 1.67 0.02 2.96-0.9 2.96-2.43z" style="paint-order:stroke fill markers"/>
	<path class="st0" d="M131.08,18.05h3.78v19.96h-3.78V18.05z" style="paint-order:stroke fill markers"/>
	<path class="st0" d="m147.94 19.23h5.54l6.09 18.78h-4.44l-1.29-4.18h-6.8l-1.29 4.18h-3.99l6.18-18.78zm0.03 11.58h4.96l-2.47-8.12-2.49 8.12z" style="paint-order:stroke fill markers"/>
	<path class="st0" d="m160.68 33.12v-8.85h3.78v8.33c0 1.86 0.76 2.76 2.39 2.76 1.6 0 2.86-1 2.86-3.02v-8.06h3.78v13.74h-3.78v-2.15c-0.71 1.39-2.1 2.44-4.36 2.44-2.67-0.01-4.67-1.59-4.67-5.19z" style="paint-order:stroke fill markers"/>
	<path class="st0" d="m175.41 31.34v-0.21c0-4.52 2.6-7.17 6.04-7.17 2.21 0 3.57 0.97 4.33 2.36v-8.27h3.78v19.96h-3.78v-2.29c-0.71 1.39-2.39 2.57-4.41 2.57-3.33 0.01-5.96-2.38-5.96-6.95zm10.49-0.13v-0.21c0-2.73-1.21-4.12-3.28-4.12-2.13 0-3.31 1.44-3.31 4.18v0.21c0 2.73 1.31 4.07 3.2 4.07 1.99-0.01 3.39-1.35 3.39-4.13z" style="paint-order:stroke fill markers"/>
	<path class="st0" d="m192.15 20.33c0-1.18 0.95-2.08 2.15-2.08 1.23 0 2.18 0.89 2.18 2.08 0 1.18-0.95 2.08-2.18 2.08-1.21 0-2.15-0.9-2.15-2.08zm0.29 3.94h3.78v13.74h-3.78v-13.74z" style="paint-order:stroke fill markers"/>
	<path class="st0" d="m198.24 31.29v-0.21c0-4.31 3.13-7.12 7.25-7.12s7.22 2.76 7.22 7.04v0.21c0 4.33-3.13 7.09-7.25 7.09-4.09 0-7.22-2.73-7.22-7.01zm10.61-0.06v-0.18c0-2.63-1.24-4.2-3.36-4.2-2.1 0-3.36 1.52-3.36 4.15v0.21c0 2.63 1.21 4.2 3.36 4.2 2.13 0 3.36-1.58 3.36-4.18z" style="paint-order:stroke fill markers"/>
</g>
<g style="paint-order:stroke fill markers">
	<g fill="none" stroke="#000" stroke-width=".5" style="paint-order:stroke fill markers">
		<path class="st0" d="m1.15 21.5c0-11.67 9.49-21.16 21.16-21.16s21.16 9.5 21.16 21.16c0 11.67-9.49 21.16-21.16 21.16s-21.16-9.49-21.16-21.16zm1.38 0c0 10.91 8.88 19.78 19.78 19.78s19.78-8.88 19.78-19.78-8.87-19.78-19.78-19.78-19.78 8.88-19.78 19.78z" style="paint-order:stroke fill markers"/>
		<g style="paint-order:stroke fill markers">
			<path class="st0" d="m27.03 22.49-9.45-4.37v-5.17c1-0.29 1.73-1.21 1.73-2.3 0-1.33-1.08-2.41-2.41-2.41s-2.41 1.08-2.41 2.41c0 1.09 0.73 2.01 1.73 2.3v14.17c-1 0.29-1.73 1.21-1.73 2.3 0 1.33 1.08 2.41 2.41 2.41s2.41-1.08 2.41-2.41c0-1.09-0.73-2.01-1.73-2.3v-7.52l9.45 4.37v6.08c-1 0.29-1.73 1.21-1.73 2.3 0 1.33 1.08 2.41 2.41 2.41s2.41-1.08 2.41-2.41c0-1.09-0.73-2.01-1.73-2.3v-14.17c1-0.29 1.73-1.21 1.73-2.3 0-1.33-1.08-2.41-2.41-2.41s-2.41 1.08-2.41 2.41c0 1.09 0.73 2.01 1.73 2.3v6.61" fill="none" stroke="#000" stroke-width=".5" style="paint-order:stroke fill markers"/>
		</g>
	</g>
</g>
<g style="paint-order:stroke fill markers">
	<g fill="none" stroke="#000" stroke-width=".5" style="paint-order:stroke fill markers">
		<g fill="none" stroke="#000" stroke-width=".5" style="paint-order:stroke fill markers">
			<path class="st0" d="M54.44,3.92h2.05v4.09h3.63V3.92h2.05v9.44h-2.05V9.63h-3.63v3.73h-2.05V3.92z" style="paint-order:stroke fill markers"/>
			<path class="st0" d="m63.21 4.85c0-0.57 0.46-1 1.04-1 0.59 0 1.05 0.43 1.05 1s-0.46 1-1.05 1-1.04-0.43-1.04-1zm0.14 1.9h1.82v6.61h-1.82v-6.61z" style="paint-order:stroke fill markers"/>
			<path class="st0" d="m65.82 13.5h1.82c0.11 0.58 0.53 0.96 1.47 0.96 1.11 0 1.67-0.58 1.67-1.62v-1c-0.37 0.65-1.15 1.23-2.12 1.23-1.61 0-2.88-1.2-2.88-3.16v-0.09c0-1.9 1.26-3.22 2.91-3.22 1.07 0 1.72 0.47 2.1 1.14v-0.99h1.82v6.09c-0.01 1.96-1.31 2.96-3.49 2.96-2.15 0-3.12-0.93-3.3-2.3zm5.01-3.61v-0.09c0-1.13-0.59-1.81-1.59-1.81-1.02 0-1.59 0.73-1.59 1.82v0.1c0 1.1 0.65 1.78 1.56 1.78 0.95 0 1.62-0.68 1.62-1.8z" style="paint-order:stroke fill markers"/>
			<path class="st0" d="m73.59 3.92h1.83v3.88c0.33-0.66 1.05-1.2 2.15-1.2 1.3 0 2.22 0.78 2.22 2.55v4.21h-1.83v-3.94c0-0.9-0.35-1.33-1.16-1.33-0.78 0-1.38 0.48-1.38 1.45v3.82h-1.83v-9.44z" style="paint-order:stroke fill markers"/>
			<path class="st0" d="M83.19,3.92H89v1.61h-3.75v2.79h3.43v1.54h-3.43v3.5h-2.05V3.92z" style="paint-order:stroke fill markers"/>
			<path class="st0" d="m89.68 4.85c0-0.57 0.46-1 1.04-1 0.59 0 1.05 0.43 1.05 1s-0.46 1-1.05 1-1.04-0.43-1.04-1zm0.14 1.9h1.82v6.61h-1.82v-6.61z" style="paint-order:stroke fill markers"/>
			<path class="st0" d="m92.27 10.15v-0.1c0-2.18 1.25-3.45 2.91-3.45 1.06 0 1.72 0.47 2.09 1.14v-3.82h1.82v9.44h-1.82v-1.1c-0.34 0.67-1.15 1.24-2.12 1.24-1.61 0-2.88-1.15-2.88-3.35zm5.05-0.06v-0.1c0-1.31-0.58-1.99-1.58-1.99-1.02 0-1.59 0.7-1.59 2.01v0.1c0 1.32 0.63 1.96 1.54 1.96 0.96 0 1.63-0.64 1.63-1.98z" style="paint-order:stroke fill markers"/>
			<path class="st0" d="m99.72 10.14v-0.1c0-2.09 1.48-3.44 3.4-3.44 1.71 0 3.22 1 3.22 3.36v0.51h-4.77c0.05 1.1 0.65 1.73 1.64 1.73 0.85 0 1.26-0.37 1.38-0.92h1.73c-0.21 1.43-1.35 2.23-3.16 2.23-1.99-0.01-3.44-1.26-3.44-3.37zm4.84-0.8c-0.06-1-0.57-1.48-1.44-1.48-0.82 0-1.38 0.54-1.52 1.48h2.96z" style="paint-order:stroke fill markers"/>
			<path class="st0" d="M107.02,3.92h1.82v9.44h-1.82V3.92z" style="paint-order:stroke fill markers"/>
			<path class="st0" d="m109.72 4.85c0-0.57 0.46-1 1.04-1 0.59 0 1.05 0.43 1.05 1s-0.46 1-1.05 1c-0.58 0-1.04-0.43-1.04-1zm0.14 1.9h1.82v6.61h-1.82v-6.61z" style="paint-order:stroke fill markers"/>
			<path class="st0" d="m112.65 11.38v-6.08h1.82v1.43h1.39v1.3h-1.39v3.19c0 0.53 0.27 0.78 0.73 0.78 0.28 0 0.48-0.04 0.69-0.13v1.42c-0.25 0.09-0.62 0.18-1.11 0.18-1.38-0.01-2.13-0.72-2.13-2.09z" style="paint-order:stroke fill markers"/>
			<path class="st0" d="m118.89 12.67-2.63-5.94h1.97l1.61 3.97 1.48-3.97h1.76l-3.58 8.86h-1.77l1.16-2.92z" style="paint-order:stroke fill markers"/>
		</g>
	</g>
</g>
<rect x="-29.525" y="-18.32" width="317.96" height="96.144" opacity=".75" style="paint-order:stroke fill markers"/></g></svg>
