<?xml version="1.0" encoding="utf-8"?>
<!-- Generator: Adobe Illustrator 24.2.0, SVG Export Plug-In . SVG Version: 6.00 Build 0)  -->
<svg version="1.1" id="Layer_1" xmlns="http://www.w3.org/2000/svg" xmlns:xlink="http://www.w3.org/1999/xlink" x="0px" y="0px"
	 viewBox="0 0 1024 140.35" style="enable-background:new 0 0 1024 140.35;" xml:space="preserve">
<style type="text/css">
	.st0{fill:#FFFFFF;}
</style>
<g>
	<g>
		<path class="st0" d="M347.99,85.39h6.54c1.15,9.11,6.8,15.4,19.24,15.4c11.29,0,17.06-5.13,17.06-13.21c0-8.6-5-11.29-17.58-13.6
			c-16.42-2.95-23.09-7.18-23.09-18.73c0-11.42,10.78-17.96,22.07-17.96c12.06,0,21.55,5,23.35,18.22h-6.54
			c-1.67-8.6-7.18-12.44-16.94-12.44c-9.36,0-15.65,4.75-15.65,11.93c0,7.7,4.62,10.52,18.35,12.96
			c14.37,2.57,22.58,6.03,22.58,19.12c0,11.29-8.34,19.5-23.61,19.5C357.99,106.55,348.88,98.22,347.99,85.39z"/>
		<path class="st0" d="M409.43,38.3h6.8v15.65c3.85-8.72,13.73-16.68,25.53-16.68c16.93,0,30.15,12.96,30.15,33.87v1.03
			c0,21.04-12.83,34.25-30.15,34.25c-13.34,0-21.94-8.08-25.53-16.29v38.62h-6.8V38.3z M464.86,72.43V71.4
			c0-18.47-10.91-28.35-23.73-28.35c-13.09,0-25.02,9.88-25.02,28.35v1.03c0,18.35,11.16,28.22,25.15,28.22
			C455.36,100.65,464.86,90.39,464.86,72.43z"/>
		<path class="st0" d="M479.22,87.31c0-15.52,14.88-20.27,31.43-20.27h13.98v-6.03c0-12.57-5.13-17.96-16.93-17.96
			c-10.14,0-17.32,4.36-18.86,14.24h-6.67c1.54-14.11,13.09-20.01,25.79-20.01c13.98,0,23.48,6.67,23.48,23.73v44.39h-6.8V95.14
			c-4.23,6.54-11.42,11.29-22.71,11.29C488.72,106.43,479.22,100.01,479.22,87.31z M524.64,83.72V72.3h-13.73
			c-13.98,0-24.89,2.95-24.89,15.01c0,8.6,5.39,13.6,16.42,13.6C514.76,100.91,524.64,93.72,524.64,83.72z"/>
		<path class="st0" d="M550.68,89.23V44.07h-9.88V38.3h9.88V23.03h6.8V38.3h17.58v5.77h-17.58v44.65c0,8.08,3.85,11.8,10.01,11.8
			c3.46,0,6.16-0.64,8.47-1.41v5.77c-2.18,0.77-4.75,1.41-8.85,1.41C556.45,106.3,550.68,100.01,550.68,89.23z"/>
		<path class="st0" d="M586.34,19.06c0-2.57,2.18-4.75,4.87-4.75c2.69,0,4.75,2.18,4.75,4.75c0,2.69-2.05,4.88-4.75,4.88
			C588.52,23.93,586.34,21.75,586.34,19.06z M587.88,38.3h6.8v67.1h-6.8V38.3z"/>
		<path class="st0" d="M607.25,87.31c0-15.52,14.88-20.27,31.43-20.27h13.98v-6.03c0-12.57-5.13-17.96-16.94-17.96
			c-10.14,0-17.32,4.36-18.86,14.24h-6.67c1.54-14.11,13.09-20.01,25.79-20.01c13.99,0,23.48,6.67,23.48,23.73v44.39h-6.8V95.14
			c-4.23,6.54-11.42,11.29-22.71,11.29C616.74,106.43,607.25,100.01,607.25,87.31z M652.67,83.72V72.3h-13.73
			c-13.98,0-24.89,2.95-24.89,15.01c0,8.6,5.39,13.6,16.42,13.6C642.79,100.91,652.67,93.72,652.67,83.72z"/>
		<path class="st0" d="M676.4,6.23h6.93v99.17h-6.93V6.23z"/>
		<path class="st0" d="M723.73,87.31c0-15.52,14.88-20.27,31.43-20.27h13.98v-6.03c0-12.57-5.13-17.96-16.94-17.96
			c-10.14,0-17.32,4.36-18.86,14.24h-6.67c1.54-14.11,13.09-20.01,25.79-20.01c13.98,0,23.48,6.67,23.48,23.73v44.39h-6.8V95.14
			c-4.23,6.54-11.42,11.29-22.71,11.29C733.22,106.43,723.73,100.01,723.73,87.31z M769.15,83.72V72.3h-13.73
			c-13.98,0-24.89,2.95-24.89,15.01c0,8.6,5.39,13.6,16.42,13.6C759.27,100.91,769.15,93.72,769.15,83.72z"/>
		<path class="st0" d="M791.98,80.77V38.3h6.8v42.08c0,14.24,6.67,20.14,18.35,20.14c10.91,0,21.94-7.31,21.94-21.43V38.3h6.8v67.1
			h-6.8V92.57c-3.08,7.31-11.67,13.86-23.48,13.86C801.73,106.43,791.98,99.24,791.98,80.77z"/>
		<path class="st0" d="M858.05,72.81v-1.03c0-20.66,13.47-34.51,31.17-34.51c13.21,0,20.66,7.57,24.5,15.91V6.23h6.8v99.17h-6.8
			V89.88c-3.59,8.08-12.96,16.55-25.53,16.55C871.13,106.43,858.05,94.11,858.05,72.81z M913.85,72.3v-1.03
			c0-18.47-10.01-28.22-23.99-28.22c-14.37,0-24.76,10.39-24.76,28.48v1.03c0,18.35,10.39,28.1,23.73,28.1
			C902.44,100.65,913.85,90.77,913.85,72.3z"/>
		<path class="st0" d="M936.43,19.06c0-2.57,2.18-4.75,4.88-4.75c2.69,0,4.75,2.18,4.75,4.75c0,2.69-2.05,4.88-4.75,4.88
			C938.61,23.93,936.43,21.75,936.43,19.06z M937.97,38.3h6.8v67.1h-6.8V38.3z"/>
		<path class="st0" d="M957.21,72.43V71.4c0-20.14,14.5-34.13,32.46-34.13c18.09,0,32.33,13.6,32.33,34v1.03
			c0,20.27-14.37,34.13-32.46,34.13C971.32,106.43,957.21,92.18,957.21,72.43z M1014.94,72.43V71.4c0-17.7-11.03-28.35-25.27-28.35
			c-14.37,0-25.4,10.91-25.4,28.35v1.03c0,17.19,10.78,28.22,25.4,28.22C1004.04,100.65,1014.94,89.75,1014.94,72.43z"/>
	</g>
	<g>
		<g>
			<g>
				<path class="st0" d="M11.31,64.46h8.28v16.55h14.66V64.46h8.28v38.16h-8.28V87.55H19.59v15.07h-8.28V64.46z"/>
				<path class="st0" d="M46.75,68.24c0-2.3,1.84-4.04,4.19-4.04c2.4,0,4.24,1.74,4.24,4.04c0,2.3-1.84,4.04-4.24,4.04
					C48.59,72.27,46.75,70.53,46.75,68.24z M47.31,75.9h7.36v26.72h-7.36V75.9z"/>
				<path class="st0" d="M57.33,103.18h7.36c0.46,2.35,2.15,3.88,5.93,3.88c4.49,0,6.74-2.35,6.74-6.54v-4.04
					c-1.48,2.61-4.65,4.96-8.58,4.96c-6.49,0-11.65-4.85-11.65-12.77v-0.36c0-7.66,5.11-13.03,11.75-13.03
					c4.34,0,6.95,1.89,8.48,4.6V75.9h7.36v24.62c-0.05,7.92-5.31,11.96-14.1,11.96C61.97,112.48,58.04,108.7,57.33,103.18z
					 M77.56,88.57v-0.36c0-4.55-2.4-7.31-6.44-7.31c-4.14,0-6.44,2.96-6.44,7.36v0.41c0,4.44,2.61,7.2,6.29,7.2
					C74.85,95.87,77.56,93.11,77.56,88.57z"/>
				<path class="st0" d="M88.69,64.46h7.41v15.68c1.33-2.66,4.24-4.85,8.69-4.85c5.26,0,8.99,3.17,8.99,10.32v17.01h-7.41V86.68
					c0-3.63-1.43-5.36-4.7-5.36c-3.17,0-5.57,1.94-5.57,5.87v15.43h-7.41V64.46z"/>
				<path class="st0" d="M127.52,64.46h23.45v6.49H135.8v11.29h13.84v6.23H135.8v14.15h-8.28V64.46z"/>
				<path class="st0" d="M153.71,68.24c0-2.3,1.84-4.04,4.19-4.04c2.4,0,4.24,1.74,4.24,4.04c0,2.3-1.84,4.04-4.24,4.04
					C155.55,72.27,153.71,70.53,153.71,68.24z M154.28,75.9h7.36v26.72h-7.36V75.9z"/>
				<path class="st0" d="M164.21,89.64v-0.41c0-8.79,5.06-13.95,11.75-13.95c4.29,0,6.95,1.89,8.43,4.6V64.46h7.36v38.16h-7.36
					v-4.44c-1.38,2.71-4.65,5.01-8.58,5.01C169.32,103.18,164.21,98.53,164.21,89.64z M184.6,89.38v-0.41
					c0-5.31-2.35-8.02-6.39-8.02c-4.14,0-6.44,2.81-6.44,8.12v0.41c0,5.31,2.56,7.92,6.23,7.92C181.89,97.41,184.6,94.8,184.6,89.38
					z"/>
				<path class="st0" d="M194.29,89.59v-0.41c0-8.43,5.98-13.9,13.74-13.9c6.9,0,13.03,4.04,13.03,13.59v2.04H201.8
					c0.21,4.45,2.61,7,6.64,7c3.42,0,5.11-1.48,5.57-3.73h7c-0.87,5.77-5.47,8.99-12.77,8.99
					C200.17,103.18,194.29,98.12,194.29,89.59z M213.86,86.37c-0.26-4.04-2.3-5.98-5.83-5.98c-3.32,0-5.57,2.2-6.13,5.98H213.86z"/>
				<path class="st0" d="M223.82,64.46h7.36v38.16h-7.36V64.46z"/>
				<path class="st0" d="M234.72,68.24c0-2.3,1.84-4.04,4.19-4.04c2.4,0,4.24,1.74,4.24,4.04c0,2.3-1.84,4.04-4.24,4.04
					C236.56,72.27,234.72,70.53,234.72,68.24z M235.29,75.9h7.36v26.72h-7.36V75.9z"/>
				<path class="st0" d="M246.57,94.6V70.02h7.36v5.77h5.62v5.26h-5.62v12.87c0,2.15,1.07,3.17,2.96,3.17
					c1.12,0,1.94-0.15,2.81-0.51v5.72c-1.02,0.36-2.5,0.72-4.49,0.72C249.58,103.02,246.57,100.16,246.57,94.6z"/>
				<path class="st0" d="M271.78,99.81l-10.63-24.01h7.97l6.49,16.04l5.98-16.04h7.1l-14.46,35.82h-7.15L271.78,99.81z"/>
			</g>
		</g>
		<g>
			<g>
				<path class="st0" d="M249.96,39.17c0-13.76,11.19-24.95,24.95-24.95c13.76,0,24.95,11.19,24.95,24.95
					c0,13.76-11.19,24.95-24.95,24.95C261.16,64.13,249.96,52.93,249.96,39.17z M251.59,39.17c0,12.86,10.47,23.33,23.33,23.33
					c12.86,0,23.33-10.47,23.33-23.33s-10.47-23.33-23.33-23.33C262.05,15.85,251.59,26.31,251.59,39.17z"/>
				<g>
					<path class="st0" d="M280.49,40.34l-11.14-5.15v-6.1c1.18-0.35,2.05-1.42,2.05-2.71c0-1.57-1.27-2.84-2.84-2.84
						c-1.57,0-2.84,1.27-2.84,2.84c0,1.29,0.87,2.37,2.05,2.71v16.72c-1.18,0.35-2.05,1.42-2.05,2.71c0,1.57,1.27,2.84,2.84,2.84
						c1.57,0,2.84-1.27,2.84-2.84c0-1.29-0.87-2.37-2.05-2.71v-8.87l11.14,5.15v7.17c-1.18,0.35-2.05,1.42-2.05,2.71
						c0,1.57,1.27,2.84,2.84,2.84c1.57,0,2.84-1.27,2.84-2.84c0-1.29-0.87-2.37-2.05-2.71V32.54c1.18-0.35,2.05-1.42,2.05-2.71
						c0-1.57-1.27-2.84-2.84-2.84c-1.57,0-2.84,1.27-2.84,2.84c0,1.29,0.87,2.37,2.05,2.71V40.34"/>
				</g>
			</g>
		</g>
	</g>
	<g>
		<path d="M345.99,83.39h6.54c1.15,9.11,6.8,15.4,19.24,15.4c11.29,0,17.06-5.13,17.06-13.21c0-8.6-5-11.29-17.58-13.6
			c-16.42-2.95-23.09-7.18-23.09-18.73c0-11.42,10.78-17.96,22.07-17.96c12.06,0,21.55,5,23.35,18.22h-6.54
			c-1.67-8.6-7.18-12.44-16.94-12.44c-9.36,0-15.65,4.75-15.65,11.93c0,7.7,4.62,10.52,18.35,12.96
			c14.37,2.57,22.58,6.03,22.58,19.12c0,11.29-8.34,19.5-23.61,19.5C355.99,104.55,346.88,96.22,345.99,83.39z"/>
		<path d="M407.43,36.3h6.8v15.65c3.85-8.72,13.73-16.68,25.53-16.68c16.93,0,30.15,12.96,30.15,33.87v1.03
			c0,21.04-12.83,34.25-30.15,34.25c-13.34,0-21.94-8.08-25.53-16.29v38.62h-6.8V36.3z M462.86,70.43V69.4
			c0-18.47-10.91-28.35-23.73-28.35c-13.09,0-25.02,9.88-25.02,28.35v1.03c0,18.35,11.16,28.22,25.15,28.22
			C453.36,98.65,462.86,88.39,462.86,70.43z"/>
		<path d="M477.22,85.31c0-15.52,14.88-20.27,31.43-20.27h13.98v-6.03c0-12.57-5.13-17.96-16.93-17.96
			c-10.14,0-17.32,4.36-18.86,14.24h-6.67c1.54-14.11,13.09-20.01,25.79-20.01c13.98,0,23.48,6.67,23.48,23.73v44.39h-6.8V93.14
			c-4.23,6.54-11.42,11.29-22.71,11.29C486.72,104.43,477.22,98.01,477.22,85.31z M522.64,81.72V70.3h-13.73
			c-13.98,0-24.89,2.95-24.89,15.01c0,8.6,5.39,13.6,16.42,13.6C512.76,98.91,522.64,91.72,522.64,81.72z"/>
		<path d="M548.68,87.23V42.07h-9.88V36.3h9.88V21.03h6.8V36.3h17.58v5.77h-17.58v44.65c0,8.08,3.85,11.8,10.01,11.8
			c3.46,0,6.16-0.64,8.47-1.41v5.77c-2.18,0.77-4.75,1.41-8.85,1.41C554.45,104.3,548.68,98.01,548.68,87.23z"/>
		<path d="M584.34,17.06c0-2.57,2.18-4.75,4.87-4.75c2.69,0,4.75,2.18,4.75,4.75c0,2.69-2.05,4.88-4.75,4.88
			C586.52,21.93,584.34,19.75,584.34,17.06z M585.88,36.3h6.8v67.1h-6.8V36.3z"/>
		<path d="M605.25,85.31c0-15.52,14.88-20.27,31.43-20.27h13.98v-6.03c0-12.57-5.13-17.96-16.94-17.96
			c-10.14,0-17.32,4.36-18.86,14.24h-6.67c1.54-14.11,13.09-20.01,25.79-20.01c13.99,0,23.48,6.67,23.48,23.73v44.39h-6.8V93.14
			c-4.23,6.54-11.42,11.29-22.71,11.29C614.74,104.43,605.25,98.01,605.25,85.31z M650.67,81.72V70.3h-13.73
			c-13.98,0-24.89,2.95-24.89,15.01c0,8.6,5.39,13.6,16.42,13.6C640.79,98.91,650.67,91.72,650.67,81.72z"/>
		<path d="M674.4,4.23h6.93v99.17h-6.93V4.23z"/>
		<path d="M721.73,85.31c0-15.52,14.88-20.27,31.43-20.27h13.98v-6.03c0-12.57-5.13-17.96-16.94-17.96
			c-10.14,0-17.32,4.36-18.86,14.24h-6.67c1.54-14.11,13.09-20.01,25.79-20.01c13.98,0,23.48,6.67,23.48,23.73v44.39h-6.8V93.14
			c-4.23,6.54-11.42,11.29-22.71,11.29C731.22,104.43,721.73,98.01,721.73,85.31z M767.15,81.72V70.3h-13.73
			c-13.98,0-24.89,2.95-24.89,15.01c0,8.6,5.39,13.6,16.42,13.6C757.27,98.91,767.15,91.72,767.15,81.72z"/>
		<path d="M789.98,78.77V36.3h6.8v42.08c0,14.24,6.67,20.14,18.35,20.14c10.91,0,21.94-7.31,21.94-21.43V36.3h6.8v67.1h-6.8V90.57
			c-3.08,7.31-11.67,13.86-23.48,13.86C799.73,104.43,789.98,97.24,789.98,78.77z"/>
		<path d="M856.05,70.81v-1.03c0-20.66,13.47-34.51,31.17-34.51c13.21,0,20.66,7.57,24.5,15.91V4.23h6.8v99.17h-6.8V87.88
			c-3.59,8.08-12.96,16.55-25.53,16.55C869.13,104.43,856.05,92.11,856.05,70.81z M911.85,70.3v-1.03
			c0-18.47-10.01-28.22-23.99-28.22c-14.37,0-24.76,10.39-24.76,28.48v1.03c0,18.35,10.39,28.1,23.73,28.1
			C900.44,98.65,911.85,88.77,911.85,70.3z"/>
		<path d="M934.43,17.06c0-2.57,2.18-4.75,4.88-4.75c2.69,0,4.75,2.18,4.75,4.75c0,2.69-2.05,4.88-4.75,4.88
			C936.61,21.93,934.43,19.75,934.43,17.06z M935.97,36.3h6.8v67.1h-6.8V36.3z"/>
		<path d="M955.21,70.43V69.4c0-20.14,14.5-34.13,32.46-34.13c18.09,0,32.33,13.6,32.33,34v1.03c0,20.27-14.37,34.13-32.46,34.13
			C969.32,104.43,955.21,90.18,955.21,70.43z M1012.94,70.43V69.4c0-17.7-11.03-28.35-25.27-28.35c-14.37,0-25.4,10.91-25.4,28.35
			v1.03c0,17.19,10.78,28.22,25.4,28.22C1002.04,98.65,1012.94,87.75,1012.94,70.43z"/>
	</g>
	<g>
		<g>
			<g>
				<path d="M9.31,62.46h8.28v16.55h14.66V62.46h8.28v38.16h-8.28V85.55H17.59v15.07H9.31V62.46z"/>
				<path d="M44.75,66.24c0-2.3,1.84-4.04,4.19-4.04c2.4,0,4.24,1.74,4.24,4.04c0,2.3-1.84,4.04-4.24,4.04
					C46.59,70.27,44.75,68.53,44.75,66.24z M45.31,73.9h7.36v26.72h-7.36V73.9z"/>
				<path d="M55.33,101.18h7.36c0.46,2.35,2.15,3.88,5.93,3.88c4.49,0,6.74-2.35,6.74-6.54v-4.04c-1.48,2.61-4.65,4.96-8.58,4.96
					c-6.49,0-11.65-4.85-11.65-12.77v-0.36c0-7.66,5.11-13.03,11.75-13.03c4.34,0,6.95,1.89,8.48,4.6V73.9h7.36v24.62
					c-0.05,7.92-5.31,11.96-14.1,11.96C59.97,110.48,56.04,106.7,55.33,101.18z M75.56,86.57v-0.36c0-4.55-2.4-7.31-6.44-7.31
					c-4.14,0-6.44,2.96-6.44,7.36v0.41c0,4.44,2.61,7.2,6.29,7.2C72.85,93.87,75.56,91.11,75.56,86.57z"/>
				<path d="M86.69,62.46h7.41v15.68c1.33-2.66,4.24-4.85,8.69-4.85c5.26,0,8.99,3.17,8.99,10.32v17.01h-7.41V84.68
					c0-3.63-1.43-5.36-4.7-5.36c-3.17,0-5.57,1.94-5.57,5.87v15.43h-7.41V62.46z"/>
				<path d="M125.52,62.46h23.45v6.49H133.8v11.29h13.84v6.23H133.8v14.15h-8.28V62.46z"/>
				<path d="M151.71,66.24c0-2.3,1.84-4.04,4.19-4.04c2.4,0,4.24,1.74,4.24,4.04c0,2.3-1.84,4.04-4.24,4.04
					C153.55,70.27,151.71,68.53,151.71,66.24z M152.28,73.9h7.36v26.72h-7.36V73.9z"/>
				<path d="M162.21,87.64v-0.41c0-8.79,5.06-13.95,11.75-13.95c4.29,0,6.95,1.89,8.43,4.6V62.46h7.36v38.16h-7.36v-4.44
					c-1.38,2.71-4.65,5.01-8.58,5.01C167.32,101.18,162.21,96.53,162.21,87.64z M182.6,87.38v-0.41c0-5.31-2.35-8.02-6.39-8.02
					c-4.14,0-6.44,2.81-6.44,8.12v0.41c0,5.31,2.56,7.92,6.23,7.92C179.89,95.41,182.6,92.8,182.6,87.38z"/>
				<path d="M192.29,87.59v-0.41c0-8.43,5.98-13.9,13.74-13.9c6.9,0,13.03,4.04,13.03,13.59v2.04H199.8c0.21,4.45,2.61,7,6.64,7
					c3.42,0,5.11-1.48,5.57-3.73h7c-0.87,5.77-5.47,8.99-12.77,8.99C198.17,101.18,192.29,96.12,192.29,87.59z M211.86,84.37
					c-0.26-4.04-2.3-5.98-5.83-5.98c-3.32,0-5.57,2.2-6.13,5.98H211.86z"/>
				<path d="M221.82,62.46h7.36v38.16h-7.36V62.46z"/>
				<path d="M232.72,66.24c0-2.3,1.84-4.04,4.19-4.04c2.4,0,4.24,1.74,4.24,4.04c0,2.3-1.84,4.04-4.24,4.04
					C234.56,70.27,232.72,68.53,232.72,66.24z M233.29,73.9h7.36v26.72h-7.36V73.9z"/>
				<path d="M244.57,92.6V68.02h7.36v5.77h5.62v5.26h-5.62v12.87c0,2.15,1.07,3.17,2.96,3.17c1.12,0,1.94-0.15,2.81-0.51v5.72
					c-1.02,0.36-2.5,0.72-4.49,0.72C247.58,101.02,244.57,98.16,244.57,92.6z"/>
				<path d="M269.78,97.81l-10.63-24.01h7.97l6.49,16.04l5.98-16.04h7.1l-14.46,35.82h-7.15L269.78,97.81z"/>
			</g>
		</g>
		<g>
			<g>
				<path d="M247.96,37.17c0-13.76,11.19-24.95,24.95-24.95c13.76,0,24.95,11.19,24.95,24.95c0,13.76-11.19,24.95-24.95,24.95
					C259.16,62.13,247.96,50.93,247.96,37.17z M249.59,37.17c0,12.86,10.47,23.33,23.33,23.33c12.86,0,23.33-10.47,23.33-23.33
					s-10.47-23.33-23.33-23.33C260.05,13.85,249.59,24.31,249.59,37.17z"/>
				<g>
					<path d="M278.49,38.34l-11.14-5.15v-6.1c1.18-0.35,2.05-1.42,2.05-2.71c0-1.57-1.27-2.84-2.84-2.84
						c-1.57,0-2.84,1.27-2.84,2.84c0,1.29,0.87,2.37,2.05,2.71v16.72c-1.18,0.35-2.05,1.42-2.05,2.71c0,1.57,1.27,2.84,2.84,2.84
						c1.57,0,2.84-1.27,2.84-2.84c0-1.29-0.87-2.37-2.05-2.71v-8.87l11.14,5.15v7.17c-1.18,0.35-2.05,1.42-2.05,2.71
						c0,1.57,1.27,2.84,2.84,2.84c1.57,0,2.84-1.27,2.84-2.84c0-1.29-0.87-2.37-2.05-2.71V30.54c1.18-0.35,2.05-1.42,2.05-2.71
						c0-1.57-1.27-2.84-2.84-2.84c-1.57,0-2.84,1.27-2.84,2.84c0,1.29,0.87,2.37,2.05,2.71V38.34"/>
				</g>
			</g>
		</g>
	</g>
</g>
</svg>
