<?xml version="1.0" encoding="utf-8"?>
<!-- Generator: Adobe Illustrator 24.2.0, SVG Export Plug-In . SVG Version: 6.00 Build 0)  -->
<svg version="1.1" id="Layer_1" xmlns="http://www.w3.org/2000/svg" xmlns:xlink="http://www.w3.org/1999/xlink" x="0px" y="0px"
	 viewBox="0 0 215 43" style="enable-background:new 0 0 215 43;" xml:space="preserve">
<style type="text/css">
	.st0{fill:#FFFFFF;}
</style>
<g>
	<path class="st0" d="M53.46,32.13h4.07c0.18,1.68,0.89,3.07,3.68,3.07c1.86,0,3.1-1.02,3.1-2.5c0-1.5-0.79-2.02-3.55-2.44
		c-4.81-0.63-6.78-2.08-6.78-5.7c0-3.2,2.68-5.6,6.83-5.6c4.23,0,6.7,1.89,7.04,5.62h-3.91c-0.26-1.71-1.26-2.5-3.13-2.5
		c-1.86,0-2.81,0.87-2.81,2.13c0,1.34,0.6,1.97,3.49,2.39c4.54,0.58,6.88,1.81,6.88,5.7c0,3.34-2.73,5.99-7.17,5.99
		C56.06,38.3,53.69,35.88,53.46,32.13z"/>
	<path class="st0" d="M70.48,24.27h3.81v2.15c0.76-1.31,2.36-2.47,4.39-2.47c3.36,0,5.99,2.5,5.99,7.04v0.21
		c0,4.54-2.57,7.09-5.99,7.09c-2.13,0-3.68-1.05-4.39-2.39v6.78h-3.81V24.27z M80.8,31.23v-0.21c0-2.78-1.37-4.15-3.28-4.15
		c-2,0-3.36,1.39-3.36,4.15v0.21c0,2.76,1.31,4.1,3.39,4.1C79.65,35.33,80.8,33.91,80.8,31.23z"/>
	<path class="st0" d="M85.69,34.2c0-3.2,2.94-4.41,7.14-4.41h1.55v-0.55c0-1.63-0.5-2.52-2.23-2.52c-1.5,0-2.18,0.76-2.34,1.94h-3.6
		c0.24-3.26,2.81-4.7,6.17-4.7c3.36,0,5.75,1.37,5.75,5.1v8.96h-3.7v-1.65c-0.79,1.1-2,1.94-4.15,1.94
		C87.79,38.3,85.69,37.09,85.69,34.2z M94.38,33.2v-1.16h-1.47c-2.21,0-3.49,0.47-3.49,1.94c0,1,0.6,1.65,2,1.65
		C93.1,35.65,94.38,34.73,94.38,33.2z"/>
	<path class="st0" d="M101.34,33.94v-6.96h-1.76v-2.71h1.76V21.3h3.78v2.97h2.89v2.71h-2.89v6.62c0,1.1,0.55,1.63,1.52,1.63
		c0.58,0,1-0.08,1.44-0.26v2.94c-0.53,0.18-1.29,0.37-2.31,0.37C102.89,38.27,101.34,36.8,101.34,33.94z"/>
	<path class="st0" d="M109.85,20.33c0-1.18,0.95-2.08,2.15-2.08c1.23,0,2.18,0.89,2.18,2.08c0,1.18-0.95,2.08-2.18,2.08
		C110.8,22.41,109.85,21.51,109.85,20.33z M110.14,24.27h3.78v13.74h-3.78V24.27z"/>
	<path class="st0" d="M115.89,34.2c0-3.2,2.94-4.41,7.14-4.41h1.55v-0.55c0-1.63-0.5-2.52-2.23-2.52c-1.5,0-2.18,0.76-2.34,1.94
		h-3.6c0.24-3.26,2.81-4.7,6.17-4.7c3.36,0,5.75,1.37,5.75,5.1v8.96h-3.7v-1.65c-0.79,1.1-2,1.94-4.15,1.94
		C118,38.3,115.89,37.09,115.89,34.2z M124.59,33.2v-1.16h-1.47c-2.21,0-3.49,0.47-3.49,1.94c0,1,0.6,1.65,2,1.65
		C123.3,35.65,124.59,34.73,124.59,33.2z"/>
	<path class="st0" d="M131.08,18.05h3.78v19.96h-3.78V18.05z"/>
	<path class="st0" d="M147.94,19.23h5.54l6.09,18.78h-4.44l-1.29-4.18h-6.8l-1.29,4.18h-3.99L147.94,19.23z M147.97,30.81h4.96
		l-2.47-8.12L147.97,30.81z"/>
	<path class="st0" d="M160.68,33.12v-8.85h3.78v8.33c0,1.86,0.76,2.76,2.39,2.76c1.6,0,2.86-1,2.86-3.02v-8.06h3.78v13.74h-3.78
		v-2.15c-0.71,1.39-2.1,2.44-4.36,2.44C162.68,38.3,160.68,36.72,160.68,33.12z"/>
	<path class="st0" d="M175.41,31.34v-0.21c0-4.52,2.6-7.17,6.04-7.17c2.21,0,3.57,0.97,4.33,2.36v-8.27h3.78v19.96h-3.78v-2.29
		c-0.71,1.39-2.39,2.57-4.41,2.57C178.04,38.3,175.41,35.91,175.41,31.34z M185.9,31.21V31c0-2.73-1.21-4.12-3.28-4.12
		c-2.13,0-3.31,1.44-3.31,4.18v0.21c0,2.73,1.31,4.07,3.2,4.07C184.5,35.33,185.9,33.99,185.9,31.21z"/>
	<path class="st0" d="M192.15,20.33c0-1.18,0.95-2.08,2.15-2.08c1.23,0,2.18,0.89,2.18,2.08c0,1.18-0.95,2.08-2.18,2.08
		C193.09,22.41,192.15,21.51,192.15,20.33z M192.44,24.27h3.78v13.74h-3.78V24.27z"/>
	<path class="st0" d="M198.24,31.29v-0.21c0-4.31,3.13-7.12,7.25-7.12c4.12,0,7.22,2.76,7.22,7.04v0.21c0,4.33-3.13,7.09-7.25,7.09
		C201.37,38.3,198.24,35.57,198.24,31.29z M208.85,31.23v-0.18c0-2.63-1.24-4.2-3.36-4.2c-2.1,0-3.36,1.52-3.36,4.15v0.21
		c0,2.63,1.21,4.2,3.36,4.2C207.62,35.41,208.85,33.83,208.85,31.23z"/>
</g>
<g>
	<g>
		<path class="st0" d="M1.15,21.5c0-11.67,9.49-21.16,21.16-21.16S43.47,9.84,43.47,21.5c0,11.67-9.49,21.16-21.16,21.16
			S1.15,33.17,1.15,21.5z M2.53,21.5c0,10.91,8.88,19.78,19.78,19.78s19.78-8.88,19.78-19.78S33.22,1.72,22.31,1.72
			S2.53,10.6,2.53,21.5z"/>
		<g>
			<path class="st0" d="M27.03,22.49l-9.45-4.37v-5.17c1-0.29,1.73-1.21,1.73-2.3c0-1.33-1.08-2.41-2.41-2.41
				c-1.33,0-2.41,1.08-2.41,2.41c0,1.09,0.73,2.01,1.73,2.3v14.17c-1,0.29-1.73,1.21-1.73,2.3c0,1.33,1.08,2.41,2.41,2.41
				c1.33,0,2.41-1.08,2.41-2.41c0-1.09-0.73-2.01-1.73-2.3v-7.52l9.45,4.37v6.08c-1,0.29-1.73,1.21-1.73,2.3
				c0,1.33,1.08,2.41,2.41,2.41c1.33,0,2.41-1.08,2.41-2.41c0-1.09-0.73-2.01-1.73-2.3V15.88c1-0.29,1.73-1.21,1.73-2.3
				c0-1.33-1.08-2.41-2.41-2.41c-1.33,0-2.41,1.08-2.41,2.41c0,1.09,0.73,2.01,1.73,2.3V22.49"/>
		</g>
	</g>
</g>
<g>
	<g>
		<g>
			<path class="st0" d="M54.44,3.92h2.05v4.09h3.63V3.92h2.05v9.44h-2.05V9.63h-3.63v3.73h-2.05V3.92z"/>
			<path class="st0" d="M63.21,4.85c0-0.57,0.46-1,1.04-1c0.59,0,1.05,0.43,1.05,1s-0.46,1-1.05,1C63.66,5.85,63.21,5.42,63.21,4.85
				z M63.35,6.75h1.82v6.61h-1.82V6.75z"/>
			<path class="st0" d="M65.82,13.5h1.82c0.11,0.58,0.53,0.96,1.47,0.96c1.11,0,1.67-0.58,1.67-1.62v-1
				c-0.37,0.65-1.15,1.23-2.12,1.23c-1.61,0-2.88-1.2-2.88-3.16V9.82c0-1.9,1.26-3.22,2.91-3.22c1.07,0,1.72,0.47,2.1,1.14V6.75
				h1.82v6.09c-0.01,1.96-1.31,2.96-3.49,2.96C66.97,15.8,66,14.87,65.82,13.5z M70.83,9.89V9.8c0-1.13-0.59-1.81-1.59-1.81
				c-1.02,0-1.59,0.73-1.59,1.82v0.1c0,1.1,0.65,1.78,1.56,1.78C70.16,11.69,70.83,11.01,70.83,9.89z"/>
			<path class="st0" d="M73.59,3.92h1.83V7.8c0.33-0.66,1.05-1.2,2.15-1.2c1.3,0,2.22,0.78,2.22,2.55v4.21h-1.83V9.42
				c0-0.9-0.35-1.33-1.16-1.33c-0.78,0-1.38,0.48-1.38,1.45v3.82h-1.83V3.92z"/>
			<path class="st0" d="M83.19,3.92H89v1.61h-3.75v2.79h3.43v1.54h-3.43v3.5h-2.05V3.92z"/>
			<path class="st0" d="M89.68,4.85c0-0.57,0.46-1,1.04-1c0.59,0,1.05,0.43,1.05,1s-0.46,1-1.05,1C90.13,5.85,89.68,5.42,89.68,4.85
				z M89.82,6.75h1.82v6.61h-1.82V6.75z"/>
			<path class="st0" d="M92.27,10.15v-0.1c0-2.18,1.25-3.45,2.91-3.45c1.06,0,1.72,0.47,2.09,1.14V3.92h1.82v9.44h-1.82v-1.1
				c-0.34,0.67-1.15,1.24-2.12,1.24C93.54,13.5,92.27,12.35,92.27,10.15z M97.32,10.09v-0.1c0-1.31-0.58-1.99-1.58-1.99
				c-1.02,0-1.59,0.7-1.59,2.01v0.1c0,1.32,0.63,1.96,1.54,1.96C96.65,12.07,97.32,11.43,97.32,10.09z"/>
			<path class="st0" d="M99.72,10.14v-0.1c0-2.09,1.48-3.44,3.4-3.44c1.71,0,3.22,1,3.22,3.36v0.51h-4.77
				c0.05,1.1,0.65,1.73,1.64,1.73c0.85,0,1.26-0.37,1.38-0.92h1.73c-0.21,1.43-1.35,2.23-3.16,2.23
				C101.17,13.5,99.72,12.25,99.72,10.14z M104.56,9.34c-0.06-1-0.57-1.48-1.44-1.48c-0.82,0-1.38,0.54-1.52,1.48H104.56z"/>
			<path class="st0" d="M107.02,3.92h1.82v9.44h-1.82V3.92z"/>
			<path class="st0" d="M109.72,4.85c0-0.57,0.46-1,1.04-1c0.59,0,1.05,0.43,1.05,1s-0.46,1-1.05,1
				C110.18,5.85,109.72,5.42,109.72,4.85z M109.86,6.75h1.82v6.61h-1.82V6.75z"/>
			<path class="st0" d="M112.65,11.38V5.3h1.82v1.43h1.39v1.3h-1.39v3.19c0,0.53,0.27,0.78,0.73,0.78c0.28,0,0.48-0.04,0.69-0.13
				v1.42c-0.25,0.09-0.62,0.18-1.11,0.18C113.4,13.46,112.65,12.75,112.65,11.38z"/>
			<path class="st0" d="M118.89,12.67l-2.63-5.94h1.97l1.61,3.97l1.48-3.97h1.76l-3.58,8.86h-1.77L118.89,12.67z"/>
		</g>
	</g>
</g>
</svg>
